<svg version="1.2" xmlns="http://www.w3.org/2000/svg" viewBox="0 0 2000 2000" width="2000" height="2000">
	<title>vecteezy_woman-write-resolution-for-next-year_-ai</title>
	<style>
		.s0 { display: none;fill: #ffffff } 
		.s1 { fill: #f5f5f5 } 
		.s2 { fill: #e2e2e2 } 
		.s3 { fill: #e2dcd8 } 
		.s4 { fill: #eae6ea } 
		.s5 { fill: #eae4d8 } 
		.s6 { fill: #f1efee } 
		.s7 { fill: #c8c8c8 } 
		.s8 { fill: #17242b } 
		.s9 { fill: #37535c } 
		.s10 { fill: #807c84 } 
		.s11 { fill: #686770 } 
		.s12 { fill: #385b64 } 
		.s13 { fill: #2a464c } 
		.s14 { fill: #fec802 } 
		.s15 { fill: #2c444e } 
		.s16 { fill: #bf7c26 } 
		.s17 { fill: #f4bb06 } 
		.s18 { fill: #ddab0b } 
		.s19 { fill: #c57426 } 
		.s20 { fill: #eab50a } 
		.s21 { fill: #f0e8ea } 
		.s22 { fill: #da902f } 
		.s23 { fill: #b58a10 } 
		.s24 { fill: #ca7429 } 
		.s25 { fill: #f49605 } 
		.s26 { fill: #dc891e } 
		.s27 { fill: #ffaca3 } 
		.s28 { fill: #ebebeb } 
		.s29 { fill: #325259 } 
		.s30 { fill: #9b9b9b } 
		.s31 { fill: #ececec } 
		.s32 { fill: #ffb207 } 
		.s33 { fill: #ffffff } 
		.s34 { fill: #eae8ea } 
		.s35 { fill: #c8bcc8 } 
		.s36 { fill: #d8d4dc } 
		.s37 { fill: #446972 } 
	</style>
	<g id="Background">
		<g id="&lt;Group&gt;">
			<path id="&lt;Path&gt;" class="s0" d="m2000 2000h-2000v-2000h2000z"/>
		</g>
	</g>
	<g id="Object">
		<g id="&lt;Group&gt;">
			<g id="&lt;Group&gt;" style="display: none">
				<g id="&lt;Group&gt;">
					<g id="&lt;Group&gt;">
						<path id="&lt;Path&gt;" class="s1" d="m400.6 214.2h488.4v360.1h-488.4z"/>
					</g>
					<g id="&lt;Group&gt;">
						<path id="&lt;Path&gt;" class="s2" d="m400.6 574.3h-20.9v-360.1h20.9z"/>
					</g>
					<g id="&lt;Group&gt;">
						<path id="&lt;Path&gt;" class="s3" d="m441 243.9h407.7v300.7h-407.7z"/>
					</g>
				</g>
				<g id="&lt;Group&gt;">
					<g id="&lt;Group&gt;">
						<path id="&lt;Path&gt;" class="s1" d="m1485.8 364.5h273.1v360.1h-273.1z"/>
					</g>
					<g id="&lt;Group&gt;">
						<path id="&lt;Path&gt;" class="s2" d="m1485.8 724.6h-11.7v-360.1h11.7z"/>
					</g>
					<g id="&lt;Group&gt;">
						<path id="&lt;Path&gt;" class="s4" d="m1516.8 394.2h211.1v300.7h-211.1z"/>
					</g>
				</g>
				<g id="&lt;Group&gt;">
					<g id="&lt;Group&gt;">
						<path id="&lt;Path&gt;" class="s1" d="m1596.9 865.5h226.9v204.1h-226.9z"/>
					</g>
					<g id="&lt;Group&gt;">
						<path id="&lt;Path&gt;" class="s2" d="m1596.9 1069.6h-9.7v-204.1h9.7z"/>
					</g>
					<g id="&lt;Group&gt;">
						<path id="&lt;Path&gt;" class="s3" d="m1622.6 882.4h175.4v170.4h-175.4z"/>
					</g>
				</g>
				<g id="&lt;Group&gt;">
					<g id="&lt;Group&gt;">
						<path id="&lt;Path&gt;" class="s1" d="m185.9 917.3h226.9v204h-226.9z"/>
					</g>
					<g id="&lt;Group&gt;">
						<path id="&lt;Path&gt;" class="s2" d="m185.9 1121.3h-9.7v-204h9.7z"/>
					</g>
					<g id="&lt;Group&gt;">
						<path id="&lt;Path&gt;" class="s4" d="m211.7 934.1h175.4v170.4h-175.4z"/>
					</g>
				</g>
			</g>
			<g id="&lt;Group&gt;">
				<path id="&lt;Path&gt;" class="s5" d="m1814.8 1706.3c0 35.3-358.5 63.8-800.8 63.8-442.3 0-800.8-28.5-800.8-63.8 0-35.2 358.5-63.7 800.8-63.7 442.3 0 800.8 28.5 800.8 63.7z"/>
			</g>
			<g id="&lt;Group&gt;">
				<g id="&lt;Group&gt;">
					<path id="&lt;Path&gt;" class="s6" d="m642.3 493.6h885.7v1158.8h-885.7z"/>
					<g id="&lt;Group&gt;">
						<path id="&lt;Path&gt;" class="s7" d="m642.3 1652.4h-71.7v-1158.8h71.7z"/>
					</g>
				</g>
				<g id="&lt;Group&gt;">
					<g id="&lt;Group&gt;">
						<circle id="&lt;Path&gt;" class="s8" cx="777.2" cy="564.6" r="30.6"/>
					</g>
					<g id="&lt;Group&gt;">
						<path id="&lt;Path&gt;" class="s9" d="m828.1 493.6c0 20.7-5.6 40.3-16 55.1-11 15.9-26 24.6-42.2 24.6-8.2 0-16-2.2-23.2-6.4q-0.1-1.2-0.1-2.3c0-6.4 1.9-12.3 5.2-17.1 5.5 4.4 11.6 7 18.1 7 21.4 0 39.4-27.9 39.4-60.9 0-33-18-60.9-39.4-60.9-21.4 0-39.4 27.9-39.4 60.9h-18.8c0-20.7 5.6-40.2 15.9-55.1 11.1-15.8 26.1-24.6 42.3-24.6 16.2 0 31.2 8.8 42.2 24.6 10.4 14.9 16 34.4 16 55.1z"/>
					</g>
					<g id="&lt;Group&gt;">
						<circle id="&lt;Path&gt;" class="s10" cx="903.3" cy="564.6" r="30.6"/>
					</g>
					<g id="&lt;Group&gt;">
						<path id="&lt;Path&gt;" class="s9" d="m954.3 493.6c0 20.7-5.7 40.3-16 55.1-11 15.9-26 24.6-42.2 24.6-8.2 0-16-2.2-23.3-6.4q0-1.2 0-2.3c0-6.4 1.9-12.3 5.2-17.1 5.5 4.4 11.6 7 18.1 7 21.3 0 39.4-27.9 39.4-60.9 0-33-18.1-60.9-39.4-60.9-21.4 0-39.4 27.9-39.4 60.9h-18.9c0-20.7 5.7-40.2 16-55.1 11.1-15.8 26.1-24.6 42.3-24.6 16.2 0 31.2 8.8 42.2 24.6 10.3 14.9 16 34.4 16 55.1z"/>
					</g>
					<g id="&lt;Group&gt;">
						<circle id="&lt;Path&gt;" class="s10" cx="1029.5" cy="564.6" r="30.6"/>
					</g>
					<g id="&lt;Group&gt;">
						<path id="&lt;Path&gt;" class="s9" d="m1080.5 493.6c0 20.7-5.7 40.3-16 55.1-11 15.9-26 24.6-42.2 24.6-8.2 0-16.1-2.2-23.3-6.4q0-1.2-0.1-2.3c0-6.4 2-12.3 5.3-17.1 5.4 4.4 11.6 7 18.1 7 21.3 0 39.4-27.9 39.4-60.9 0-33-18.1-60.9-39.4-60.9-21.4 0-39.4 27.9-39.4 60.9h-18.9c0-20.7 5.7-40.2 16-55.1 11-15.8 26.1-24.6 42.3-24.6 16.2 0 31.2 8.8 42.2 24.6 10.3 14.9 16 34.4 16 55.1z"/>
					</g>
					<g id="&lt;Group&gt;">
						<circle id="&lt;Path&gt;" class="s10" cx="1155.7" cy="564.6" r="30.6"/>
					</g>
					<g id="&lt;Group&gt;">
						<path id="&lt;Path&gt;" class="s9" d="m1206.7 493.6c0 20.7-5.7 40.3-16 55.1-11 15.9-26 24.6-42.2 24.6-8.2 0-16.1-2.2-23.3-6.4q-0.1-1.2-0.1-2.3c0-6.4 2-12.3 5.3-17.1 5.4 4.4 11.6 7 18.1 7 21.3 0 39.4-27.9 39.4-60.9 0-33-18.1-60.9-39.4-60.9-21.4 0-39.5 27.9-39.5 60.9h-18.8c0-20.7 5.7-40.2 16-55.1 11-15.8 26-24.6 42.3-24.6 16.2 0 31.2 8.8 42.2 24.6 10.3 14.9 16 34.4 16 55.1z"/>
					</g>
					<g id="&lt;Group&gt;">
						<circle id="&lt;Path&gt;" class="s10" cx="1281.9" cy="564.6" r="30.6"/>
					</g>
					<g id="&lt;Group&gt;">
						<path id="&lt;Path&gt;" class="s9" d="m1332.9 493.6c0 20.7-5.7 40.3-16 55.1-11 15.9-26 24.6-42.3 24.6-8.1 0-16-2.2-23.2-6.4q-0.1-1.2-0.1-2.3c0-6.4 2-12.3 5.3-17.1 5.4 4.4 11.6 7 18 7 21.4 0 39.4-27.9 39.4-60.9 0-33-18-60.9-39.4-60.9-21.3 0-39.4 27.9-39.4 60.9h-18.8c0-20.7 5.7-40.2 16-55.1 11-15.8 26-24.6 42.2-24.6 16.3 0 31.3 8.8 42.3 24.6 10.3 14.9 16 34.4 16 55.1z"/>
					</g>
					<g id="&lt;Group&gt;">
						<circle id="&lt;Path&gt;" class="s10" cx="1408.1" cy="564.6" r="30.6"/>
					</g>
					<g id="&lt;Group&gt;">
						<path id="&lt;Path&gt;" class="s9" d="m1459.1 493.6c0 20.7-5.7 40.3-16 55.1-11.1 15.9-26.1 24.6-42.3 24.6-8.1 0-16-2.2-23.2-6.4q-0.1-1.2-0.1-2.3c0-6.4 1.9-12.3 5.3-17.1 5.4 4.4 11.6 7 18 7 21.4 0 39.4-27.9 39.4-60.9 0-33-18-60.9-39.4-60.9-21.3 0-39.4 27.9-39.4 60.9h-18.8c0-20.7 5.7-40.2 16-55.1 11-15.8 26-24.6 42.2-24.6 16.2 0 31.2 8.8 42.3 24.6 10.3 14.9 16 34.4 16 55.1z"/>
					</g>
				</g>
				<g id="&lt;Group&gt;">
					<g id="&lt;Group&gt;">
						<path id="&lt;Compound Path&gt;" fill-rule="evenodd" class="s11" d="m796.6 777.9l-12.5-18.1h-13.9v18.1h-15.1v-65.2h28.2q8.7 0 15.1 2.8 6.4 2.9 9.8 8.3 3.5 5.3 3.5 12.5 0 7.3-3.5 12.6-3.5 5.3-10 8.1l14.7 20.9zm-3.9-50q-3.5-2.9-10.3-2.9h-12.3v22.7h12.3q6.8 0 10.3-3 3.6-2.9 3.6-8.4 0-5.5-3.6-8.4zm81.4 37.9v12.1h-50.6v-65.2h49.3v12.1h-34.3v14.2h30.3v11.7h-30.3v15.1zm18.5 11.2q-7.2-2.1-11.6-5.5l5.2-11.4q4.2 3.1 9.9 5 5.8 1.8 11.6 1.8 6.4 0 9.5-1.9 3.1-1.9 3.1-5.1 0-2.3-1.8-3.8-1.8-1.6-4.7-2.5-2.8-0.9-7.7-2.1-7.4-1.7-12.2-3.5-4.8-1.8-8.2-5.7-3.4-3.9-3.4-10.4 0-5.7 3.1-10.3 3.1-4.7 9.3-7.4 6.2-2.7 15.1-2.7 6.3 0 12.3 1.5 5.9 1.5 10.4 4.3l-4.7 11.5q-9-5.1-18-5.1-6.4 0-9.4 2-3.1 2.1-3.1 5.4 0 3.4 3.5 5 3.5 1.6 10.7 3.2 7.5 1.8 12.2 3.6 4.8 1.7 8.2 5.6 3.4 3.8 3.4 10.3 0 5.6-3.1 10.2-3.1 4.6-9.4 7.3-6.2 2.8-15.2 2.8-7.7 0-15-2.1zm66.3-2.3q-8.1-4.4-12.7-12.1-4.6-7.7-4.6-17.3 0-9.6 4.6-17.3 4.6-7.7 12.7-12.1 8.2-4.4 18.4-4.4 10.1 0 18.2 4.4 8.2 4.4 12.8 12.1 4.7 7.7 4.7 17.3 0 9.6-4.7 17.3-4.6 7.7-12.8 12.1-8.1 4.4-18.2 4.4-10.2 0-18.4-4.4zm28.8-11.2q4.7-2.6 7.3-7.4 2.7-4.7 2.7-10.8 0-6.1-2.7-10.8-2.6-4.8-7.3-7.4-4.7-2.7-10.4-2.7-5.8 0-10.5 2.7-4.6 2.6-7.3 7.4-2.7 4.7-2.7 10.8 0 6.1 2.7 10.8 2.7 4.8 7.3 7.4 4.7 2.7 10.5 2.7 5.7 0 10.4-2.7zm36.7-50.8h15.1v52.9h32.7v12.3h-47.8zm62.7 58.7q-7.8-7.7-7.8-22.1v-36.6h15.1v36q0 17.6 14.5 17.6 7.1 0 10.9-4.3 3.7-4.2 3.7-13.3v-36h14.9v36.6q0 14.4-7.8 22.1-7.8 7.7-21.8 7.7-13.9 0-21.7-7.7zm78.6-46.4h-20.9v-12.3h56.9v12.3h-20.9v53h-15.1zm44.1-12.3h15.1v65.3h-15.1zm43.9 62q-8.1-4.4-12.8-12.1-4.6-7.7-4.6-17.3 0-9.6 4.6-17.3 4.7-7.7 12.8-12.1 8.2-4.3 18.3-4.3 10.2 0 18.3 4.3 8.1 4.4 12.8 12.1 4.7 7.7 4.7 17.3 0 9.6-4.7 17.3-4.7 7.7-12.8 12.1-8.1 4.4-18.3 4.4-10.1 0-18.3-4.4zm28.8-11.2q4.6-2.6 7.3-7.4 2.7-4.7 2.7-10.8 0-6-2.7-10.8-2.7-4.8-7.3-7.4-4.7-2.7-10.5-2.7-5.7 0-10.4 2.7-4.7 2.6-7.3 7.4-2.7 4.8-2.7 10.8 0 6.1 2.7 10.8 2.6 4.8 7.3 7.4 4.7 2.7 10.4 2.7 5.8 0 10.5-2.7zm96.5-50.8v65.3h-12.4l-32.6-39.7v39.7h-14.9v-65.3h12.5l32.5 39.6v-39.6z"/>
					</g>
				</g>
				<g id="&lt;Group&gt;">
					<g id="&lt;Group&gt;">
						<path id="&lt;Compound Path&gt;" fill-rule="evenodd" class="s11" d="m938.1 967.6h-89.5v-89.6h89.5zm-79-10.6h68.4v-68.4h-68.4zm79 180h-89.5v-89.6h89.5zm-79-10.6h68.4v-68.4h-68.4zm79 180h-89.5v-89.6h89.5zm-79-10.6h68.4v-68.3h-68.4zm79 179.9h-89.5v-89.5h89.5zm-79-10.6h68.4v-68.4h-68.4z"/>
					</g>
				</g>
				<g id="&lt;Group&gt;">
					<g id="&lt;Group&gt;">
						<path id="&lt;Compound Path&gt;" fill-rule="evenodd" class="s11" d="m1368 945.3h-378.5v-12.7h378.5zm0 161.7h-378.5v12.6h378.5zm0 174.3h-378.5v12.7h378.5zm0 174.3h-378.5v12.6h378.5z"/>
					</g>
				</g>
			</g>
			<g id="&lt;Group&gt;">
				<g id="&lt;Group&gt;">
					<path id="&lt;Path&gt;" class="s12" d="m1721.6 1532.4h-259.7v-79.9h259.7z"/>
				</g>
				<g id="&lt;Group&gt;">
					<path id="&lt;Path&gt;" class="s12" d="m1705.5 1532.4l-33.1 152h-161.3l-33.1-152z"/>
				</g>
				<g id="&lt;Group&gt;">
					<path id="&lt;Path&gt;" class="s13" d="m1486.9 1573.3l-8.9-40.9h227.5l-8.9 40.9z"/>
				</g>
				<g id="&lt;Group&gt;">
					<g id="&lt;Group&gt;">
						<path id="&lt;Path&gt;" class="s14" d="m1620.8 1391.1c-13.3-40 5.3-86.4 44.5-110.9 22.6-14.1 50.2-20.8 77.1-27.4 1.9 22.5 2.4 46.3-4.4 68.1-6.9 21.7-20.3 42.4-40.7 56.5-20.4 14.2-51.1 19.1-76.5 13.7z"/>
					</g>
					<g id="&lt;Group&gt;">
						<path id="&lt;Path&gt;" class="s14" d="m1610.5 1251.4c-5-35.6 17.5-72.7 53.7-88.6 21-9.1 44.9-11.5 68.2-13.6-1.8 19.3-5 39.5-13.9 57.1-9 17.6-23.3 33.5-42.4 42.9-19 9.5-45.3 9.9-65.6 2.2z"/>
					</g>
					<g id="&lt;Group&gt;">
						<path id="&lt;Path&gt;" class="s14" d="m1604.5 1145.7c-19.1-38.3-5.3-88.8 28.6-118.2 19.6-17 45.1-27.3 70.1-37.2 5.4 22.2 9.6 46 6.4 68.6-3.2 22.6-12.9 45-30.3 61.7-17.4 16.8-49.4 27.2-74.8 25.1z"/>
					</g>
					<g id="&lt;Group&gt;">
						<path id="&lt;Path&gt;" class="s14" d="m1505.6 1122.3c-15.9-14.4-24.8-33.5-27.9-52.8-3-19.3 0.6-39.5 5.3-58.4 22.6 8.6 45.7 17.5 63.5 32.2 30.9 25.2 43.8 68.3 26.8 100.9-22.9 1.6-51.8-7.6-67.7-21.9z"/>
					</g>
					<g id="&lt;Group&gt;">
						<path id="&lt;Path&gt;" class="s14" d="m1489.2 1303.6c-19.3-12.1-32.9-30.6-40.6-50.6-7.7-20-8.9-42.4-8.7-63.5 24.6 4.5 49.9 9.3 71.3 21.3 37 20.6 60.2 64.1 51 102.3-22.5 6.5-53.6 2.6-73-9.5z"/>
					</g>
					<g id="&lt;Group&gt;">
						<path id="&lt;Path&gt;" class="s12" d="m1738 1302.4c0.1 1.3-1 2.3-2.4 2.3l-15.1 0.5q-3 0-6.1 0.1c-3.3 0-6.6-0.2-10-0.7q-12.9 12.7-25.4 25.8c10.8-0.1 21.6-1.5 32.1-4 1.4-0.3 2.7 0.5 3.1 1.7 0.3 1.2-0.5 2.4-1.8 2.8-11.8 2.7-32.3 3.8-37.7 4.1q-8.9 9.5-17.6 19.2c13 0.3 26.1-0.3 39-1.6 1.4-0.2 2.7 0.7 2.8 2 0.2 1.2-0.8 2.4-2.2 2.5-10.8 1.2-21.8 1.7-32.7 1.7q-5.4 0-10.8-0.2c-2.7 3.1-43.7 52.4-59.6 74.3v19.9c0 1.8-1.6 3.3-3.6 3.3-2 0-3.7-1.5-3.7-3.3v-101.7c-10.2-15-24.5-32.2-40.7-49.7q-9.9 1.5-19.9 1.5-9.8 0-19.6-1.5c-1.4-0.2-2.3-1.4-2-2.6 0.2-1.3 1.5-2.1 2.8-1.9 11.6 1.8 23.3 1.9 34.9 0.4-6-6.4-12.2-12.7-18.5-19l-35.2-1c-1.4 0-2.5-1.1-2.5-2.3 0.1-1.3 1.2-2.3 2.6-2.3l30.4 0.9c-8.7-8.5-17.5-16.8-26.3-24.6-4.2-0.4-8.3-0.6-12.4-0.7-4.8-0.1-9.8-0.3-15-0.9-1.4-0.1-2.4-1.3-2.2-2.5 0.2-1.3 1.4-2.2 2.8-2 5 0.6 9.9 0.7 14.6 0.9q3.2 0 6.6 0.2c-6.3-5.5-12.5-10.8-18.4-15.6-1.5-1.2-1.7-3.3-0.3-4.7 1.3-1.4 3.6-1.5 5.1-0.3 5.7 4.6 11.6 9.7 17.7 15-0.9-7.1-0.9-13.7-0.1-21.5 0.1-1.3 1.3-2.2 2.7-2.1 1.4 0.2 2.4 1.3 2.3 2.5-1 9.6-0.7 17.2 1 26.3 8.7 7.7 17.5 15.9 26.1 24.4l-1.1-32.6c-0.1-1.2 1-2.3 2.4-2.3 1.4-0.1 2.5 0.9 2.6 2.2l1.3 37.8c6.6 6.5 13 13.1 19.2 19.6l-4.7-32.5c-0.2-1.3 0.8-2.4 2.2-2.6 1.3-0.2 2.6 0.7 2.8 2l5.7 39.3q0 0.1 0 0.2c13 14.1 24.5 27.8 33.1 39.7v-163.1c-7.2-17.3-16.5-31.7-26.9-45.2q-6.8 1-13.6 1-5.2 0-10.4-0.6c-1.4-0.1-2.4-1.2-2.2-2.5 0.1-1.2 1.4-2.1 2.7-2 6.8 0.7 13.5 0.7 20.2-0.1-4.3-5.5-8.9-10.9-13.5-16.4-12.9-0.7-25.8-2.6-38.2-5.6-1.3-0.4-2.1-1.6-1.8-2.8 0.4-1.3 1.8-2 3.1-1.7 10.7 2.7 21.7 4.4 32.8 5.3-2.4-3-6-8-10.2-13.8-12.9-1.4-25.2-4.7-36.8-10-1.2-0.6-1.7-2-1.1-3.1 0.6-1.1 2.1-1.6 3.4-1 9.7 4.5 20.1 7.5 30.9 9-9.4-13.1-19.9-28.2-24.4-33.9-1.1-1.5-0.7-3.6 0.9-4.6 1.6-1.1 3.9-0.8 5.1 0.7 2.9 3.8 8.5 11.8 14.7 20.5l-1.1-19.1c-0.1-1.3 1-2.4 2.3-2.4 1.5-0.1 2.6 0.9 2.7 2.1l1.6 27.2c6.3 8.8 12.5 17.5 16.4 22.6 1.3-10.7 2.4-21.6 3.1-32.3 0.1-1.2 1.2-2.2 2.6-2.1 1.4 0.1 2.4 1.1 2.4 2.4-0.9 12.4-2.1 24.9-3.7 37.3 5.1 6 10.1 12 15 18.2 2.3-8.8 4.3-17.7 5.7-26.6 0.2-1.2 1.5-2.1 2.9-1.9 1.3 0.2 2.3 1.3 2.1 2.6-1.7 10.3-4 20.7-6.9 30.8 9 11.8 17.2 24.3 24 38.9 10.5-20.9 22.4-42.3 35.8-64l-3.4-12.6c-1.9-7.1-3.8-14.5-4-22.1 0-1.3 1.1-2.3 2.5-2.3q0 0 0 0c1.4 0 2.5 1 2.5 2.2 0.2 7.1 2.1 14.2 3.9 21.1l2.1 7.8q6.6-10.6 13.8-21.4c-0.8-7.7-2-15.5-3.1-23.1l-1.7-11.1c-0.2-1.2 0.8-2.4 2.1-2.5 1.4-0.2 2.7 0.7 2.9 1.9l1.7 11.1c0.8 5.7 1.7 11.4 2.4 17.2q6.3-9.3 13-18.8l-2.2-28.7c-0.1-1.2 0.9-2.3 2.3-2.4 1.4-0.1 2.6 0.8 2.7 2.1l1.7 22.6q7.1-9.9 14.5-19.8c1.1-1.5 3.4-1.9 5-0.8 1.7 1 2.1 3.1 1 4.6q-8.2 10.8-15.9 21.7c8.5 0 16.9-0.4 25.3-1.1 1.3-0.1 2.6 0.8 2.7 2.1 0.1 1.3-0.9 2.4-2.3 2.5-8.3 0.7-16.7 1.1-25.1 1.1q-1.9-0.1-3.8-0.1-7.5 10.7-14.6 21.2l33.5-0.7c1.4-0.1 2.6 0.9 2.6 2.2 0 1.2-1 2.3-2.4 2.3l-36.7 0.9c-5.9 8.9-12.4 19-17.8 27.8q14.8-0.4 21.9-1.3 5.3-0.6 10.6-1.4c1.7-0.3 4-1.1 5 0.5 1.8 3-2.2 3.3-4.3 3.8-3.6 0.8-7.1 1.3-10.8 1.7q-12.7 1.5-25.5 1.8c-12.9 21.4-24.4 42.5-34.4 63.2v89.8q14-15.7 29-30.6c-0.4-11.7 1-23.2 4.2-34.5 0.3-1.2 1.7-2 3-1.7 1.4 0.4 2.2 1.6 1.8 2.8-2.6 9.4-4 18.9-4 28.6q10.7-10.5 22-20.4c-0.5-10.4 0.4-20.8 2.5-31 0.3-1.3 1.6-2.1 2.9-1.9 1.4 0.3 2.3 1.5 2 2.7-1.8 8.5-2.6 17.2-2.5 25.9q10.5-9.1 21.4-17.7c1-6.6 2.3-13.1 4-19.6 0.3-1.2 1.6-2 3-1.7 1.3 0.3 2.1 1.5 1.8 2.8-1.2 4.6-2.2 9.3-3 14q4.3-3.4 8.7-6.7c1.6-1.1 3.9-0.9 5.1 0.5 1.3 1.4 1.1 3.5-0.5 4.7q-7 5.2-13.8 10.6c8.2 1 16.5 1.7 24.7 1.9 1.4 0.1 2.5 1.1 2.4 2.4 0 1.2-1.2 2.2-2.5 2.2q0 0-0.1 0c-9.8-0.3-19.7-1.2-29.4-2.6q-10.8 8.8-21.2 17.9c10.2 1.6 20.7 2.4 31.1 2.4 1.4 0 2.5 1.1 2.5 2.3 0 1.3-1.1 2.3-2.5 2.3-11.9 0-23.9-1-35.5-3q-11.2 9.9-21.8 20.4c10.9 1 21.9 1 32.8-0.2 1.4-0.1 2.6 0.8 2.8 2.1 0.1 1.2-0.9 2.3-2.2 2.5q-9 0.9-17.9 0.9-9.9 0-19.7-1.1-16.2 16.2-31.1 33.5v144.7c14.8-20 30.4-39.4 46.8-58.4 0.4-15.3 2-30.6 4.9-45.7 0.2-1.2 1.5-2.1 2.9-1.9 1.4 0.3 2.3 1.4 2 2.7-2.4 12.8-4 25.9-4.6 38.9q11.9-13.5 24.3-26.7c-1.9-10.1-2.1-20.2-0.7-30.4 0.1-1.2 1.4-2.1 2.8-2 1.3 0.2 2.3 1.3 2.1 2.6-1.1 8.4-1.1 16.9 0.1 25.2q12-12.5 24.4-24.7c-0.6-7.9-0.2-15.8 1.2-23.6 0.2-1.2 1.5-2.1 2.9-1.9 1.3 0.2 2.3 1.4 2.1 2.6-1.1 6-1.6 12.1-1.5 18.2q8.9-8.5 17.9-16.9c1.4-1.3 3.7-1.3 5.1 0 1.4 1.3 1.4 3.4 0 4.7q-8.9 8.3-17.7 16.8c3.9 0.3 7.9 0.2 11.8 0.1l15.1-0.4c1.3-0.1 2.5 0.9 2.5 2.2z"/>
					</g>
				</g>
			</g>
			<g id="&lt;Group&gt;">
				<g id="&lt;Group&gt;">
					<g id="&lt;Group&gt;">
						<path id="&lt;Path&gt;" class="s12" d="m571.3 1636.6c-7.2-1.8-39.1 22.6-47.4 25.9-15.2 6.1-31.2 10.3-47 14.6-40.8 11.1-82 12.4-121.8-3.5-78.4-31.2-122.4-113-126.8-191.5 45.9-50.6 138.6-55.3 164.3-59.9 41.1-1 241.8 16.6 291-10.9 53.9-15.8 116.4-37.9 148.7-40.3 44.4 43 15.4 106.1-6.2 155.1-20.2 46-54.6 70.9-101.9 92.8-47.4 22-102 30.7-152.9 17.7z"/>
					</g>
					<g id="&lt;Group&gt;">
						<path id="&lt;Path&gt;" class="s15" d="m835 1392c-4.5 72.9-40.7 167.4-101.1 222.3q-4.8 2.3-9.7 4.6c-47.4 22-102 30.7-152.9 17.7-7.2-1.8-39.1 22.6-47.4 25.9-8.5 3.4-17.4 6.3-26.3 8.9-43.8-5.6-86.6-18-124.9-36-56.7-26.6-109.8-68.2-131.4-126.1q-7-15.7-7-30.8c47.6-44.7 133.7-51.9 158.3-56.3 35.9-0.9 193.4 12.4 265.6-2.5 59.9 0 119.9-9.3 176.8-27.7z"/>
					</g>
				</g>
				<g id="&lt;Group&gt;">
					<g id="&lt;Group&gt;">
						<path id="&lt;Path&gt;" class="s16" d="m784.2 1365.2c-9.9 34.6-38.3 72.8-78.4 73.6-7.1 0.2-14.7-0.8-20.3-5.2-7.5-6-9-16.7-8.8-26.2 0.4-11.9 4.2-22.6 6-34.2 1.8-11.7 0-24 0.6-35.9 1.3-29.3 4-58.5 8.4-87.5 3.7-25 6-57.7 6-83 0-24.7-7.2-48.8-15-72.3-14.6-44.1-35.8-75-48.3-120.4 24.8 12.2 56.1 49.8 80.1 111 17.8 45.4 33.3 91.8 47.5 138.4 9.7 31.4 23.9 67.9 26 102.8 0.8 13.3-0.1 26.4-3.8 38.9z"/>
					</g>
					<g id="&lt;Group&gt;" style="display: none">
						<path id="&lt;Path&gt;" class="s17" d="m745.7 1424.2c-11.4 8.7-24.8 14.3-39.9 14.6-7.1 0.2-14.7-0.8-20.3-5.2-7.5-6-9-16.7-8.8-26.2 0.4-11.9 4.2-22.6 6-34.2 1.8-11.7 0-24 0.6-35.9 1.3-29.3 4-58.5 8.4-87.5 3.7-25 6-57.7 6-83 0-24.7-7.2-48.8-15-72.3-12.9-38.8-30.8-67.4-43.5-104.7 51.4 67.3 84.3 149 86 232.8 0.5 22.5-1.3 44.9-1 67.4 0.3 26.7 3.5 53.5 9.4 79.6 4.2 18.2 9.7 36.2 12.1 54.6z"/>
					</g>
					<path id="&lt;Path&gt;" class="s18" d="m705.8 1438.8c-7.1 0.2-14.7-0.8-20.3-5.2-7.5-6-9-16.7-8.8-26.2 0.4-11.9 4.2-22.6 6-34.2 1.8-11.7 0-24 0.6-35.9q0.2-3.4 0.3-6.7c13.2-7.5 28.4-11.6 43.6-10.4 19 1.5 37.7 12.2 46.2 29 4.6 8.9 6.2 18.9 6.3 28.9-12.6 30.5-38.7 60-73.9 60.7z"/>
				</g>
				<g id="&lt;Group&gt;">
					<g id="&lt;Group&gt;">
						<g id="&lt;Group&gt;">
							<path id="&lt;Path&gt;" class="s19" d="m697.7 1166.8c0 25.3-2.3 58-6 83-7.9 52.3-7.1 112.5-8.1 161.5-55 82.3-157.8 43.9-202.4 36.7-24.3-3.9-71.4-15.4-93.6-25.8 6.6-17 6.3-58.5-7-106.9-42.3-152.5-63-301.8-61.9-319.4 27.9-21.1 60.1-36.7 94-45.8q1.1-0.3 2.6-0.6 0 1.4 0 2.7c24 27 60.6 38.8 95.2 30.6 6.8-1.6 11.4-7.7 10.9-14.5-0.8-9.1-0.3-19.1 0.7-28.9q0.8 0 1.6 0c11.1 0.4 92.5 15.6 110.7 34.7 12.5 45.4 33.7 76.3 48.3 120.4 7.8 23.5 15 47.6 15 72.3z"/>
						</g>
						<g id="&lt;Group&gt;">
							<g id="&lt;Group&gt;">
								<path id="&lt;Compound Path&gt;" fill-rule="evenodd" class="s20" d="m486.9 1281.6l-15.9-16-13.8 18-5.6-4.1 18.7-24.5 21.7 21.7zm59-5.9l-16-15.9-13.7 18-5.7-4.1 18.7-24.5 21.7 21.7zm-47.1-56.4l-13.8 18-5.6-4.1 18.7-24.5 21.6 21.7-5 4.8zm-87.5 41.7l21.7 21.7-5 4.8-16-15.9-13.7 18-5.7-4.1zm14.7-17.7l-5.6-4.1 18.7-24.6 21.7 21.8-5.1 4.8-15.9-15.9zm-45.2-12.2l-13.8 18.1-4.1-3q-0.3-1.3-0.5-2.5l17.7-23.2 21.6 21.7-5 4.9zm268 8.5l21.7 21.7-5.1 4.9-15.9-16-13.8 18.1-5.6-4.2zm-74.9 33.4l-5.7-4.1 18.7-24.5 21.7 21.7-5 4.8-15.9-15.9zm105.4-64.4l-13.8 18-5.6-4.1 18.7-24.5 16.9 16.9q-0.4 4.6-0.8 9.1zm-101.9 17l-5.1 4.9-15.9-16-13.7 18.1-5.7-4.2 18.7-24.5zm40.9-15.8l-13.8 18-5.7-4.1 18.8-24.5 21.6 21.7-5 4.8z"/>
							</g>
						</g>
						<g id="&lt;Group&gt;">
							<path id="&lt;Path&gt;" class="s20" d="m667.8 1155.7q-2.9-1.8-5.8-3.6-2.6 2.4-5.3 4.9c-10.3 9.4-20.9 19.2-32.4 27.3l-4.3 3-4.8-2.4c-14.5-7-30-12.2-46.4-17.7-9.1-3-18.3-6.2-27.4-9.6-7.4 5.5-15.1 11.2-22.6 16.7-8.8 6.6-17.9 13.4-26.6 19.7l-3.9 2.9-4.8-1.9c-20.8-8.3-44.4-14.1-67.2-19.8-5.5-1.4-11.2-2.8-16.8-4.2-14.5 12.1-29.2 24.2-43.9 36.2q-2-6.3-3.9-12.5c13.5-11.1 27-22.2 40.2-33.3l3.4-2.8 4.7 1.3c7 1.8 14.3 3.6 21.3 5.3 21.7 5.4 44 10.9 64.6 18.7 7.4-5.5 15.1-11.2 22.6-16.8 8.8-6.6 17.9-13.3 26.5-19.7l3.9-2.9 4.8 1.9c10.2 4.1 21 7.7 31.5 11.2 14.4 4.9 29.2 9.9 43.2 16.2 9.3-7 18.2-15.2 26.9-23.2 3.5-3.2 6.8-6.3 10.1-9.2l4.8-4.3 5.6 3.5q5.7 3.5 11.5 7c6.7 4 13.5 8.1 20.2 12.3q0.2 3.4 0.2 6.9 0 3.5-0.1 7.2c-9.9-6.2-19.9-12.3-29.8-18.3z"/>
						</g>
						<g id="&lt;Group&gt;">
							<path id="&lt;Path&gt;" class="s20" d="m695.2 1140.1c-12.3-7.8-24.8-15.5-37.2-23q-2.2-1.3-4.4-2.7l-36.6 31.2-5.4 3.8-6.1-2.9c-14.4-7-29.8-12.2-46.1-17.7-8.7-2.9-17.6-5.9-26.3-9.2-7.2 5.3-14.5 10.8-21.7 16.1-8.8 6.6-17.9 13.3-26.5 19.7l-4.9 3.6-6-2.4c-20.7-8.3-44.2-14.1-66.9-19.7-5.2-1.3-10.4-2.6-15.7-3.9-14.7 12.3-30.4 25.5-45.5 37.8q-1.8-8.9-3.5-17.5c13.1-10.6 26.9-21.7 39.5-32.3l4.2-3.5 5.9 1.5c7 1.9 14.3 3.7 21.4 5.4 21.2 5.3 43.2 10.7 63.5 18.3 7.1-5.3 14.5-10.7 21.6-16.1 8.8-6.5 17.9-13.3 26.6-19.7l4.9-3.6 6 2.4c10.2 4 20.9 7.7 31.3 11.2 14.1 4.7 28.5 9.5 42.2 15.6 8.8-6.7 17.4-14.6 25.8-22.3 3.5-3.2 6.8-6.3 10.1-9.2l6-5.3 7 4.3q5.7 3.5 11.5 7c6.8 4.1 13.7 8.3 20.5 12.5 1.9 6.8 3.5 13.7 4.8 20.6z"/>
						</g>
						<g id="&lt;Group&gt;" style="mix-blend-mode: multiply">
							<path id="&lt;Path&gt;" class="s21" d="m387.6 1422.2c6.6-17 6.3-58.5-7-106.9-39.6-142.8-60.3-282.6-61.8-314.4l8.1 2.1c29 37.4 49.6 81.1 59.7 127 6.2 28.3 8.5 57.1 12.9 85.7 8.5 56.3 22.1 122.3 72 157.9 26.3 18.8 58 29.1 89.9 35.8 40 8.4 83.4 10.7 122.2 0.3q0 0.8 0 1.6c-55 82.3-157.8 43.9-202.4 36.7-24.3-3.9-71.4-15.4-93.6-25.8z"/>
						</g>
					</g>
					<g id="&lt;Group&gt;">
						<path id="&lt;Path&gt;" class="s22" d="m555.5 979.5c-6.8 22.2-23.5 42.2-45.9 49.8-10.1 3.4-21.1 4.3-31.8 3.6-43-2.7-82.6-32.5-97.2-72 10.4-4.3 21.2-7.9 32.1-10.8q1.1-0.3 2.6-0.6 0 1.4 0 2.7c24 27 60.6 38.8 95.2 30.6 6.8-1.6 11.4-7.7 10.9-14.5-0.8-9.1-0.3-19.1 0.7-28.9q0.8 0 1.6 0c4.2 0.2 18.9 3.1 36 6.3 0.8 11.9-0.8 22.4-4.2 33.8z"/>
						<path id="&lt;Compound Path&gt;" fill-rule="evenodd" class="s23" d="m484.5 985.3c-4.8 15.3-7.9 31.4-9 47.4q-5-0.4-9.9-1.3c2.4-15.8 5.9-31.5 10.5-46.8q4.1 0.5 8.4 0.7zm-52.6 34q-4.5-2.5-8.8-5.4 11-19.4 22.9-38.4 3.7 1.8 7.6 3.3c-7.8 13.4-14.7 26.8-21.7 40.5zm72.5-35.3q3-0.5 6.1-1.2 1.2-0.3 2.4-0.8c4.4 13 9.6 25.2 15 37.5-3.4 2.6-7.2 4.9-11.1 6.8-4.6-13.5-8.8-27.2-12.4-42.3zm51.6-6.6q-17.7-6.4-34.9-13.9-0.2-4.2 0-8.5c12.2 4.8 24.5 9.7 36.7 14.4q-0.7 4-1.8 8zm-132.9-17.4q2.5 2.3 5.2 4.5c-8.1 10-18.8 19.4-28.7 28.5q-2.8-3.3-5.4-6.8c8.9-8.5 20.4-20.1 28.9-26.2z"/>
					</g>
				</g>
				<g id="&lt;Group&gt;">
					<g id="&lt;Group&gt;">
						<path id="&lt;Path&gt;" class="s15" d="m660.4 1342l-3.4 16.4-15.2-7.7-68.9-140.9c-2.4-5-0.3-11 4.9-13.4 5.1-2.4 11.2-0.3 13.7 4.7z"/>
					</g>
					<g id="&lt;Group&gt;">
						<g id="&lt;Group&gt;">
							<path id="&lt;Path&gt;" class="s24" d="m362.4 1292.1c50.7-0.2 91.2-2.5 133.7-1.2 0 28.2 0 76.2 0 104.4-49.8 10.6-140.2 31.3-209.4 26.1-11.6-0.9-23.5-2.5-33.4-8.4-18.5-11.1-25-33.8-29.1-54.6-12.7-63.7 2.7-294.4 94.5-362.5 73.9 69.7 62.6 195.7 43.7 296.2z"/>
						</g>
						<g id="&lt;Group&gt;">
							<path id="&lt;Path&gt;" class="s25" d="m286.7 1421.4c-11.6-0.9-23.5-2.5-33.4-8.4-18.5-11.1-25-33.8-29.1-54.6-2.9-14.6-4.4-37.9-3.7-66 2.8 29.7 14.7 59.3 39.4 76.1 13.3 9 29.2 13.6 45.1 16.4 64.1 11.4 128.7-4.4 191.1-25.8 0 13.4 0 26.1 0 36.2-49.8 10.6-140.2 31.3-209.4 26.1z"/>
						</g>
						<path id="&lt;Path&gt;" class="s26" d="m496.1 1395.3c-9.7 2.1-20.8 4.5-33.1 7-3-36.8-0.4-74.2 3.4-111.4 10.5-0.3 20.5-0.3 29.7 0 0 28.2 0 76.2 0 104.4z"/>
					</g>
					<g id="&lt;Group&gt;">
						<g id="&lt;Group&gt;">
							<path id="&lt;Path&gt;" class="s27" d="m655.8 1304.6c-1.1 4.9-7.2 6.8-11.2 4.6-4.1-2.1-6.3-6.8-8-11.4 3 20.1 1.1 28.4-2.2 48.7-15.3 9.1-34.5 9.4-50.4 6.8-8.6-1.4-21.7 9.2-39.8 14.6-17.7 5.2-37.9 8.4-48.1 9.8 0-22.2 0-49.6 0-71.4l19.8-2.6c18.1-12.5 36.9-24.2 56-35.4 11.6-6.8 37.6-8 58.2-9.6 10.2 12.9 15.1 22.4 23.4 37 1.5 2.6 3 5.7 2.3 8.9z"/>
						</g>
						<path id="&lt;Compound Path&gt;" fill-rule="evenodd" class="s15" d="m637.4 1302c-0.5 0-1-0.3-1.3-0.8-2.9-5.1-6.3-9.9-10.2-14.4-3.6 0.7-7.3 1.2-10.9 1.6-2.9 0.3-5.8 0.6-8.6 1.1-0.8 0.1-1.6-0.4-1.8-1.2-0.1-0.8 0.4-1.6 1.2-1.7 2.9-0.5 5.9-0.8 8.8-1.2 3.9-0.4 7.9-0.8 11.6-1.7l0.9-0.2 0.6 0.7c4.1 4.8 7.9 10.1 11 15.6 0.4 0.7 0.2 1.6-0.5 2q-0.4 0.2-0.8 0.2zm1.4 16.5c-0.4 0-0.8-0.1-1.1-0.5-1.4-1.6-2.8-3.3-4.1-5.1-1.3-1.5-2.5-3-3.7-4.4l-21.6 1.2c-0.9 0-1.6-0.6-1.6-1.4-0.1-0.8 0.6-1.5 1.4-1.5l23.2-1.4 0.5 0.6c1.3 1.6 2.7 3.4 4.1 5.1 1.4 1.7 2.8 3.5 4.1 5.1 0.5 0.6 0.4 1.5-0.2 2q-0.4 0.4-1 0.3zm-1.8 18.8c-0.4 0-0.7-0.1-1-0.4-3.5-3.2-7.3-6.2-11.3-8.8-3 0.3-6 0.5-9 0.7-3.2 0.2-6.4 0.3-9.4 0.7-0.8 0.1-1.6-0.5-1.7-1.3-0.1-0.8 0.5-1.5 1.3-1.6 3.1-0.4 6.4-0.6 9.6-0.8 3.1-0.2 6.4-0.4 9.4-0.7l0.5-0.1 0.5 0.3c4.3 2.8 8.4 6 12.1 9.5 0.6 0.6 0.7 1.5 0.1 2.1-0.3 0.3-0.7 0.4-1.1 0.4zm-126.5 38.2c-5.7 1-10.7 1.7-14.4 2.2 0-22.2 0-49.6 0-71.4h0.1q7.2 34.6 14.3 69.2z"/>
					</g>
				</g>
				<g id="&lt;Group&gt;">
					<g id="&lt;Group&gt;">
						<path id="&lt;Path&gt;" class="s7" d="m516.2 1405.2l122.6-80.4 137.3-13.2-114.8 79.7z"/>
					</g>
					<g id="&lt;Group&gt;">
						<path id="&lt;Path&gt;" class="s28" d="m638.8 1324.8l-122.6 80.4v-14.2l121.7-79.4 138.2-11.6v11.6z"/>
					</g>
				</g>
				<g id="&lt;Group&gt;">
					<g id="&lt;Group&gt;">
						<path id="&lt;Path&gt;" class="s27" d="m747.6 1361.3c2.3 7.8 9.2 16.4 7.3 25.1-1.8 8.3-12.2 15.7-18.7 20.6-16.9 12.5-38 19.8-59.3 19.8-10.1 0-20.2-0.1-30.3-0.4-11.1-0.5-21.5 0.6-27.7-10.4-4.7-8.1-2.9-18.3 1.6-26.1 2.1-3.8 7.5-4.4 13.1-6.2-5.1-1.2-13.1-3.9-9.1-9.9 1.3-2 6.2-2.9 8.4-3.7 3.5-1.3 7.2-2.1 10.8-3.2 6.7-2 13.7-3.1 20.7-3.2 22.2-0.3 37.4 5.4 52.4-14.1 8.9-11.7 21.4-23.7 37.4-20.5-4.5 9.6-9.1 20.1-7 30.3q0.2 0.9 0.4 1.9z"/>
					</g>
					<g id="&lt;Group&gt;">
						<g id="&lt;Group&gt;">
							<path id="&lt;Compound Path&gt;" fill-rule="evenodd" class="s15" d="m753.7 1375.8c1.3 3.5 2 7.1 1.2 10.6-1.8 8.3-12.2 15.7-18.7 20.6-10.7 7.9-23.1 13.8-36.2 17q3.8-1.5 7.5-3.2c20.5-8.9 41-24.4 46.2-45zm-98.7 10.1c-8.9 0-17.8-0.1-26.7-0.4-0.8-0.1-1.5-0.7-1.4-1.5 0-0.9 0.7-1.5 1.5-1.5 13.9 0.5 28.1 0.6 42 0.3 0.8 0 1.5 0.7 1.6 1.5 0 0.8-0.7 1.4-1.5 1.5q-7.7 0.1-15.5 0.1zm5.5 17.9q0 0 0 0l-44.1-1c-0.8 0-1.5-0.6-1.5-1.5 0.1-0.8 0.8-1.4 1.6-1.4l44 1c0.9 0 1.5 0.7 1.5 1.5 0 0.8-0.7 1.4-1.5 1.4zm-41.4 15c-0.8 0-1.5-0.6-1.5-1.5 0-0.8 0.7-1.4 1.5-1.4h42.9c0.9 0 1.5 0.6 1.5 1.4 0 0.9-0.6 1.5-1.5 1.5z"/>
						</g>
					</g>
				</g>
				<g id="&lt;Group&gt;">
					<g id="&lt;Group&gt;">
						<g id="&lt;Group&gt;">
							<path id="&lt;Path&gt;" class="s12" d="m481.2 1655.1q143-122.8 286.8-244.8c24.6-20.9 52.5-43 84.2-41.2 23 1.3 44.4 15.9 57.1 36 19.5 30.7 18.1 68.6 2.6 100.5-18.1 37.5-49.8 51.1-85.9 71.1-40.8 22.5-82.6 43.5-125.2 62.8q-31.8 14.5-64.2 27.7-16.2 6.5-32.5 12.8c-5.2 2-27.7 11.4-32.7 12.2-29.7 4.8-92.4-9.3-90.2-37.1z"/>
						</g>
						<g id="&lt;Group&gt;">
							<path id="&lt;Path&gt;" class="s29" d="m604.1 1680c-5.2 2-28 14.1-32.7 12.2q0 0-90.2-37.1 72.3-62.1 144.8-123.9c66 22.9 137.3 31.3 206.9 23.5 14.9-1.7 30-4.2 44.5-8.2-15.1 11.1-32.7 19.8-51.4 30.2-40.8 22.5-82.6 43.5-125.2 62.8q-31.8 14.5-64.2 27.7-16.2 6.5-32.5 12.8z"/>
						</g>
					</g>
					<g id="&lt;Group&gt;">
						<g id="&lt;Group&gt;">
							<path id="&lt;Path&gt;" class="s7" d="m445.3 1679.6c13.8-10.2 38.1-5.9 52.7 0.6 10.4 4.7 20.2 8.5 29.7 14.3 9.2 5.6 20.1 8.8 31 10.6 14.4 2.3 29.2 2.2 43.8 3 7.4 0.3 14.9 0.9 22 3 16.4 4.8 32.5 20.4 35.1 35.7 2.3 13.7-8.7 27.2-22.9 33.4-14.1 6.2-30.7 6.3-46.4 4.8-15.1-1.5-24.2-7-36.7-13.7-26.5-14.4-59.3-16.9-86.4-30.3-6.9-3.5-14.8-10.8-20.8-19.5-9.8-14.3-14.4-32.1-1.1-41.9z"/>
						</g>
						<g id="&lt;Group&gt;">
							<g id="&lt;Group&gt;">
								<path id="&lt;Compound Path&gt;" fill-rule="evenodd" class="s30" d="m575.5 1706.9c-9.5 20.9-16.6 42.7-21.1 64.8q-0.4-0.2-0.8-0.4-3.1-1.7-6.3-3.2c6.3-20.8 13.5-41.4 21.6-61.8q3.3 0.4 6.6 0.6zm4.5 76.3c7.3-25.3 16-50.3 25.9-75q3.4 0.3 6.8 0.6c-11.4 24.4-19.6 50-24.2 76q-4.6-0.6-8.5-1.6zm36.5 2.1c6.7-22.6 14.3-44.8 23-66.8q2.7 1.9 5.1 4c-8.7 19.8-15.2 40.4-19.4 61.4q-4.3 0.9-8.7 1.4zm-113.4-102.8q3.2 1.4 6.4 2.8c-10.2 20.3-18.1 41.6-23.4 63.3q-3.3-1.1-6.5-2.3c6.8-21.5 14.7-42.8 23.5-63.8zm31.4 15.6q2.9 1.3 5.9 2.4c-8.6 18.7-15.3 38.2-19.9 58.1q-3.4-1-6.9-2 9.2-29.6 20.9-58.5zm-83.5 29.4q8.8-27.2 19.6-53.9 3.4 0.2 6.8 0.7c-9 19-16 38.8-20.8 59-1.9-1.8-3.8-3.7-5.6-5.8z"/>
							</g>
						</g>
						<g id="&lt;Group&gt;">
							<path id="&lt;Path&gt;" class="s31" d="m659.6 1746.8c-2.6-15.3-18.7-30.9-35.1-35.7-7.1-2.1-14.6-2.7-22-3-14.6-0.8-29.4-0.7-43.8-3-10.9-1.8-21.8-5-31-10.6-9.5-5.8-19.3-9.6-29.7-14.3-14.6-6.5-38.9-10.8-52.7-0.6 6.7-6.1 11.2-11.7 26-14 12.8-2.1 20.2-0.4 31.6 4.7 10.5 4.6 20.3 8.5 29.8 14.3 9.2 5.6 20.1 8.8 31 10.5 14.4 2.3 50.4 5.8 66.6 10.6 11.5 3.4 21.5 11.7 27.3 20.9 1.5 3.1 3 11.2 2 20.2z"/>
						</g>
						<g id="&lt;Group&gt;">
							<path id="&lt;Path&gt;" class="s14" d="m458.5 1669.3c7.8-6.9 16.3-13.2 25.4-18.8 0.8-0.5 1.6-1 2.4-0.9 0.9 0 1.7 0.4 2.4 0.8 20 12.4 38.4 27.1 62.8 32.4 14.8 3.3 30.3 2.7 45.5 3.7 15.3 1 31.1 3.7 42.9 12.4 7.3 5.3 13.6 15.7 16.3 25.6-5.2-9.4-17.3-16-28-19.3-14.7-4.7-50.1-7.8-64.5-10.1-10.9-1.7-21.8-4.9-31-10.5-9.5-5.8-19.3-9.7-29.8-14.3-11.4-5.1-18.8-6.8-31.6-4.7-5.5 0.8-9.5 2.1-12.8 3.7z"/>
						</g>
						<g id="&lt;Group&gt;">
							<path id="&lt;Path&gt;" class="s12" d="m656.2 1724.5c-5.2-9.4-17.3-16-28-19.3-6.2-2-16.1-3.7-26.6-5.1 2-4.4 4.4-8.7 7.3-12.4 11.3 1.6 22.3 4.8 31 11.2 7.3 5.3 13.6 15.7 16.3 25.6z"/>
						</g>
					</g>
				</g>
				<g id="&lt;Group&gt;">
					<g id="&lt;Group&gt;">
						<path id="&lt;Path&gt;" class="s12" d="m700.6 1709.5c-114.7-35.4-228.3-73.9-340.7-115.3-29.8-10.9-60-22.4-85.1-41-25.2-18.6-45.1-45.7-46.9-75.8-2.3-38.9 27.6-75.8 66.3-89.3 38.7-13.5 83.4-5.6 118.3 15.1 20.4 12.1 232.3 152.7 329.5 225.4-11.1 19-30.4 61.9-41.4 80.9z"/>
					</g>
					<g id="&lt;Group&gt;">
						<g id="&lt;Group&gt;">
							<path id="&lt;Path&gt;" class="s14" d="m933.2 1704.9c0.9 22.4-21.2 34.9-44.4 39.3-23.2 4.4-50.9 2.9-73.7-3.1-38.6-10-73.4-24.6-112-34.7 10.8-20.1 25.8-52.5 36.7-73 14.6 6.6 31.8 8.2 48.2 7.8 20.6-0.4 40.8 1.8 61.4 3.7 19.7 1.9 38.9 8.6 55.2 19.2 14.6 9.5 27.9 24.2 28.6 40.8z"/>
						</g>
						<g id="&lt;Group&gt;">
							<path id="&lt;Path&gt;" class="s12" d="m708.6 1695.9c8.4-16.5 18.2-37.3 26.6-53.7 4.1 2.2 7.3 5.7 9.4 9.7 2.7 5 3.7 10.6 3.6 16.2 0 4-0.5 8-2.1 11.8-3.5 8.6-12.5 14.8-22.2 16.6-5.1 0.9-10.4 0.7-15.3-0.6z"/>
						</g>
						<g id="&lt;Group&gt;">
							<path id="&lt;Path&gt;" class="s32" d="m850.5 1712.1c-34.7-8.7-75.9-16.4-111.7-24-4.4-1-7.3-5.2-6.5-9.5 1-5.5 2.6-11.7 4.4-17 1.6-4.5 6.3-7.2 11-6.2 38.1 8.3 76.7 22.4 109.2 24.7-2.2 9.3-5.3 22.5-6.4 32z"/>
						</g>
						<g id="&lt;Group&gt;">
							<path id="&lt;Path&gt;" class="s12" d="m854 1746.6c-9.1-24-2.5-50.6 4.9-75.3 2.4-7.9 4.9-15.9 9-23.2 13.1 3.3 25.6 8.8 36.7 16 14.6 9.5 27.9 24.2 28.6 40.8 0.9 22.4-21.2 34.9-44.4 39.3-10.9 2.1-22.9 2.8-34.8 2.4z"/>
						</g>
						<g id="&lt;Group&gt;">
							<g id="&lt;Group&gt;">
								<path id="&lt;Compound Path&gt;" fill-rule="evenodd" class="s31" d="m757.6 1701.9q-0.3 0-0.6-0.1c-1.7-0.3-2.7-1.9-2.4-3.5l9.1-42.6c0.3-1.6 1.9-2.6 3.6-2.3 1.6 0.3 2.6 1.9 2.3 3.5l-9.1 42.6c-0.3 1.4-1.5 2.4-2.9 2.4zm24.4-0.1c0.8-14.8 2.7-26.3 6.1-40.8 0.3-1.6-0.7-3.2-2.3-3.6-1.6-0.3-3.2 0.7-3.6 2.2-3.5 14.9-5.4 26.7-6.2 41.9-0.1 1.6 1.1 3 2.8 3.1q0.1 0 0.2 0c1.5 0 2.9-1.2 3-2.8zm18 5.3c1.4-15.9 3.2-26.1 6.4-41.8 0.3-1.6-0.8-3.2-2.4-3.5-1.6-0.3-3.2 0.7-3.5 2.3-3.3 15.9-5.1 26.4-6.5 42.5-0.2 1.6 1.1 3.1 2.7 3.2q0.1 0 0.3 0c1.5 0 2.8-1.1 3-2.7zm18.2 2.8c2.1-15.1 3.9-27.3 6.5-42.3 0.2-1.6-0.9-3.1-2.5-3.4-1.7-0.2-3.2 0.8-3.5 2.4-2.5 15.1-4.3 27.4-6.4 42.5-0.2 1.6 0.9 3.1 2.6 3.3q0.2 0 0.4 0c1.4 0 2.7-1 2.9-2.5zm17.7 6.6l7.3-47.2c0.2-1.6-0.9-3.1-2.5-3.4-1.7-0.2-3.2 0.9-3.4 2.5l-7.3 47.2c-0.3 1.6 0.8 3.1 2.5 3.4q0.2 0 0.4 0c1.5 0 2.8-1 3-2.5z"/>
							</g>
						</g>
					</g>
				</g>
				<g id="&lt;Group&gt;">
					<g id="&lt;Group&gt;">
						<path id="&lt;Path&gt;" class="s15" d="m361 929c-21.2-5.5-37.9-22-49.7-40.2-58-88.7-44.6-218.8 39.6-287.2 39.8-32.3 124.5-61.6 165.7-18.3 1.4 1.5 27-0.6 31.8 0.8 10.2 2.8 19.2 8.3 27 15.5 39.8 36.5 26 87.1 42.3 133.4 9.5 27.1 24.5 52.6 29.9 80.8 5.5 28.3-1.7 61.8-26.9 76.5-22.3 12.9-50.3 7.3-76.2 6-25.8-1.3-51.8 2.3-76.3 10.5-31.4 10.5-71.7 30.4-105.5 22.6q-0.8-0.2-1.7-0.4z"/>
					</g>
					<g id="&lt;Group&gt;">
						<g id="&lt;Group&gt;">
							<path id="&lt;Path&gt;" class="s27" d="m521.4 968.3c0.5 6.8-4.1 12.9-10.9 14.5-34.6 8.2-71.2-3.6-95.2-30.6-1-37.1-0.4-72.5-3.5-109.5 7.2 42.3 44.6 77.9 88 83.8 7.8 1.1 15.9 1.1 23.9 0.3-2 13.8-3.4 28.5-2.3 41.5z"/>
						</g>
						<g id="&lt;Group&gt;">
							<path id="&lt;Path&gt;" class="s15" d="m523.7 926.8c-1.4 9.3-2.4 19-2.6 28.3-6.7 0.7-13.6 0.2-20-1.6-15.9-4.2-29.4-14.5-41.1-25.9-21-20.6-37.3-45.8-47.4-73.2q-0.3-5.9-0.8-11.7c7.2 42.3 44.6 77.9 88 83.8 7.8 1.1 15.9 1.1 23.9 0.3z"/>
						</g>
					</g>
					<g id="&lt;Group&gt;">
						<g id="&lt;Group&gt;">
							<path id="&lt;Path&gt;" class="s27" d="m354.8 816c-6.4-8-11.3-17.6-11.3-27.8 0-10.1 6.1-20.7 16-23.7 4.5-1.4 9.4-1.1 14-0.2 9.9 1.9 23.1 7.3 30.3 14.1 35.5-13.3 60.2-36.6 84.8-65 24.5-28.4 39.2-50.4 55.7-83.9 21.6 16.7 48.8 44.1 56 84.7 8.9 49.9 17.3 93.8 7.7 144.3-8.6 46.1-62 74.3-108.2 68-43.4-5.9-80.8-41.5-88-83.8-19.2 6.9-44.6-10.8-57-26.7z"/>
						</g>
						<g id="&lt;Group&gt;">
							<g id="&lt;Group&gt;">
								<path id="&lt;Compound Path&gt;" fill-rule="evenodd" class="s15" d="m562.9 700.9c6.6-5.1 17.9-5.6 25.9-4.2 5.5 0.9 11.6 4.6 11.1 10.1-0.6 5.8-7.9 8-13.8 8.8q-7.6 1.1-15.1 2.2c-10.8 1.6-16.8-3.9-13.5-10.7 0.9-2 2.7-4.1 5.4-6.2zm-68.9 20.5c5.5 5.2 1.9 12.4-8.8 14.7q-7.4 1.6-14.9 3.2c-5.8 1.2-13.4 1.7-16-3.5-2.5-4.9 1.8-10.6 6.6-13.3 7.1-4.1 17.8-7.5 25.8-5 3.3 1 5.7 2.4 7.3 3.9z"/>
							</g>
						</g>
						<path id="&lt;Path&gt;" class="s15" d="m536.4 825.8c-1.1 0-2.2-0.6-2.7-1.7-0.8-1.5-1.5-3.3-2.1-5-0.7-1.6-1.3-3.2-1.9-4.5l-1.8-3.4 6.3-1.3c7.2-1.4 17.6-3.4 24.9-5.5-4.6-20.1-10.5-40-17.8-59.4-0.5-1.5 0.3-3.2 1.8-3.7 1.6-0.6 3.3 0.2 3.9 1.7 7.6 20.4 13.9 41.6 18.6 62.8l0.6 2.6-2.6 0.8c-7.2 2.3-18.4 4.6-27 6.3q0.3 0.7 0.6 1.5c0.6 1.7 1.2 3.2 1.9 4.5 0.7 1.5 0.1 3.2-1.4 4q-0.6 0.3-1.3 0.3z"/>
						<g id="&lt;Group&gt;">
							<g id="&lt;Group&gt;">
								<path id="&lt;Compound Path&gt;" fill-rule="evenodd" class="s15" d="m501.1 778.4c0 7.1-5.8 12.8-13 12.8-7.2 0-13.1-5.7-13.1-12.8 0-7 5.9-12.7 13.1-12.7 7.2 0 13 5.7 13 12.7zm79.5-31.2c-7.2 0-13 5.7-13 12.7 0 7.1 5.8 12.8 13 12.8 7.2 0 13-5.7 13-12.8 0-7-5.8-12.7-13-12.7z"/>
							</g>
						</g>
						<path id="&lt;Path&gt;" class="s15" d="m396.3 806.3c-1.4 0-2.6-0.8-2.9-2.2-1.5-5.6-5.5-10.5-10.8-13.2-5.3-2.6-11.8-2.9-17.3-0.7-1.5 0.6-3.3-0.1-3.9-1.6-0.6-1.5 0.1-3.2 1.7-3.8 7.1-2.8 15.4-2.5 22.2 0.9 6.8 3.4 12 9.7 13.9 17 0.4 1.6-0.6 3.2-2.2 3.6q-0.4 0-0.7 0z"/>
						<g id="&lt;Group&gt;">
							<g id="&lt;Group&gt;">
								<path id="&lt;Path&gt;" class="s33" d="m553.1 856.1c-1.3 6.6-4.8 13.4-11.1 16-3.7 1.5-7.8 1.4-11.7 0.8-14.7-2.3-28.4-11-34.2-24.5 20.2 1.1 40.7-2.3 59.4-9.9-1.5 6.5-1.1 11.1-2.4 17.6z"/>
							</g>
							<g id="&lt;Group&gt;">
								<path id="&lt;Path&gt;" class="s34" d="m555.5 838.5c-0.3 1.3-0.5 2.6-0.7 3.8-15.8 9.7-35.7 12.6-54.8 13q-2.3-3.2-3.9-6.9c20.2 1.1 40.7-2.3 59.4-9.9z"/>
							</g>
						</g>
						<g id="&lt;Group&gt;">
							<path id="&lt;Path&gt;" class="s15" d="m547.8 884.9c-2.1 5.9-8.9 9.8-15.2 9.4-6.5-0.5-12.4-5.4-13.8-11.6 8.4 6.5 20 7.6 29 2.2z"/>
						</g>
					</g>
				</g>
			</g>
			<g id="&lt;Group&gt;">
				<g id="&lt;Group&gt;">
					<path id="&lt;Path&gt;" class="s35" d="m1206.2 1734h-214c-15.3 0-27.8-12.4-27.8-27.8v-0.3h184.4l79.3-212.7c2.4-6.2 8.3-10.4 15-10.4h49.9z"/>
				</g>
				<g id="&lt;Group&gt;">
					<path id="&lt;Path&gt;" class="s36" d="m1408.2 1734h-250l87.3-234c3.8-10.3 13.6-17.2 24.6-17.2h222.1c12.6 0 21.3 12.6 16.9 24.3l-78.9 211.6c-3.4 9.2-12.2 15.3-22 15.3z"/>
				</g>
				<g id="&lt;Group&gt;">
					<path id="&lt;Path&gt;" class="s1" d="m1371 1615.4c-4.3 15-17.4 27.3-29.3 27.3-11.9 0-18-12.3-13.7-27.3 4.3-15.1 17.4-27.3 29.3-27.3 11.8 0 18 12.2 13.7 27.3z"/>
				</g>
			</g>
			<g id="&lt;Group&gt;">
				<g id="&lt;Group&gt;">
					<path id="&lt;Path&gt;" class="s33" d="m869.6 502.9c0 79.8-64.7 144.5-144.5 144.5q-9.6 0-18.8-1.2l-73.2 56.4 8.9-81.4c-37.1-26.1-61.4-69.4-61.4-118.3 0-79.8 64.7-144.5 144.5-144.5 79.8 0 144.5 64.7 144.5 144.5z"/>
				</g>
				<g id="&lt;Group&gt;">
					<g id="&lt;Group&gt;">
						<g id="&lt;Group&gt;">
							<path id="&lt;Path&gt;" class="s15" d="m744 608h-37.8c-15 0-27.2-12.1-27.2-27.1v-27h92.1v27c0 15-12.1 27.1-27.1 27.1z"/>
						</g>
						<g id="&lt;Group&gt;">
							<g id="&lt;Group&gt;">
								<path id="&lt;Compound Path&gt;" fill-rule="evenodd" class="s37" d="m770.7 568.3q-0.4 2.6-1 5.1h-89.2q-0.7-2.5-1-5.1zm-79 25.4q-2.3-2.4-4.2-5.2h75.2q-2 2.8-4.3 5.2z"/>
							</g>
						</g>
					</g>
					<g id="&lt;Group&gt;">
						<path id="&lt;Path&gt;" class="s14" d="m767.7 543.5v10.4h-85.3v-10.4c-21.9-14.1-36.4-38.6-36.4-66.6 0-43.6 35.4-79 79.1-79 43.6 0 79 35.4 79 79 0 28-14.5 52.5-36.4 66.6z"/>
					</g>
					<g id="&lt;Group&gt;">
						<path id="&lt;Path&gt;" class="s33" d="m689.4 476.6c-0.3-1.2 0.5-2.3 1.6-2.6 1.2-0.3 2.4 0.4 2.7 1.6l2.7 11.6h57.3l2.8-11.6c0.3-1.2 1.4-1.9 2.6-1.6 1.2 0.3 1.9 1.4 1.6 2.6l-24.9 77.3h-4.4q0-0.2 0-0.5l21.3-61.8h-55.2l21.2 61.8q0.1 0.3 0.1 0.5h-4.5z"/>
					</g>
				</g>
			</g>
		</g>
	</g>
</svg>